<?xml version="1.0" encoding="UTF-8" standalone="no"?>
<!DOCTYPE svg PUBLIC "-//W3C//DTD SVG 1.1//EN" "http://www.w3.org/Graphics/SVG/1.1/DTD/svg11.dtd">
<svg width="100%" height="100%" viewBox="0 0 1792 1792" version="1.1" xmlns="http://www.w3.org/2000/svg" xmlns:xlink="http://www.w3.org/1999/xlink" xml:space="preserve" xmlns:serif="http://www.serif.com/" style="fill-rule:evenodd;clip-rule:evenodd;stroke-linejoin:round;stroke-miterlimit:2;">
    <g transform="matrix(1,0,0,1,0,64)">
        <path d="M1312,256L480,256C436,256 398.333,271.667 367,303C335.667,334.333 320,372 320,416L320,1248C320,1292 335.667,1329.67 367,1361C398.333,1392.33 436,1408 480,1408L1312,1408C1356,1408 1393.67,1392.33 1425,1361C1456.33,1329.67 1472,1292 1472,1248L1472,416C1472,372 1456.33,334.333 1425,303C1393.67,271.667 1356,256 1312,256ZM1600,416L1600,1248C1600,1327.33 1571.83,1395.17 1515.5,1451.5C1459.17,1507.83 1391.33,1536 1312,1536L480,1536C400.667,1536 332.833,1507.83 276.5,1451.5C220.167,1395.17 192,1327.33 192,1248L192,416C192,336.667 220.167,268.833 276.5,212.5C332.833,156.167 400.667,128 480,128L1312,128C1391.33,128 1459.17,156.167 1515.5,212.5C1571.83,268.833 1600,336.667 1600,416Z" style="fill-rule:nonzero;"/>
        <g transform="matrix(1.1416,0,0,1.1416,-126.872,-190.872)">
            <path d="M1225,1079L1079,1225C1072.33,1231.67 1064.67,1235 1056,1235C1047.33,1235 1039.67,1231.67 1033,1225L896,1088L759,1225C752.333,1231.67 744.667,1235 736,1235C727.333,1235 719.667,1231.67 713,1225L567,1079C560.333,1072.33 557,1064.67 557,1056C557,1047.33 560.333,1039.67 567,1033L704,896L567,759C560.333,752.333 557,744.667 557,736C557,727.333 560.333,719.667 567,713L713,567C719.667,560.333 727.333,557 736,557C744.667,557 752.333,560.333 759,567L896,704L1033,567C1039.67,560.333 1047.33,557 1056,557C1064.67,557 1072.33,560.333 1079,567L1225,713C1231.67,719.667 1235,727.333 1235,736C1235,744.667 1231.67,752.333 1225,759L1088,896L1225,1033C1231.67,1039.67 1235,1047.33 1235,1056C1235,1064.67 1231.67,1072.33 1225,1079Z" style="fill-rule:nonzero;"/>
        </g>
    </g>
</svg>
