<?xml version="1.0" encoding="UTF-8" standalone="no"?>
<!DOCTYPE svg PUBLIC "-//W3C//DTD SVG 1.1//EN" "http://www.w3.org/Graphics/SVG/1.1/DTD/svg11.dtd">
<svg width="100%" height="100%" viewBox="0 0 1792 1792" version="1.1" xmlns="http://www.w3.org/2000/svg" xmlns:xlink="http://www.w3.org/1999/xlink" xml:space="preserve" xmlns:serif="http://www.serif.com/" style="fill-rule:evenodd;clip-rule:evenodd;stroke-linejoin:round;stroke-miterlimit:2;">
    <g transform="matrix(0.91391,0,0,0.913396,77.137,77.5976)">
        <path d="M1664,416L1664,1376C1664,1455.33 1635.83,1523.17 1579.5,1579.5C1523.17,1635.83 1455.33,1664 1376,1664L416,1664C336.667,1664 268.833,1635.83 212.5,1579.5C156.167,1523.17 128,1455.33 128,1376L128,416C128,336.667 156.167,268.833 212.5,212.5C268.833,156.167 336.667,128 416,128L1376,128C1455.33,128 1523.17,156.167 1579.5,212.5C1635.83,268.833 1664,336.667 1664,416Z" style="fill-rule:nonzero;"/>
    </g>
</svg>
